<?xml version="1.0" encoding="UTF-8"?>
<svg version="1.1" xmlns="http://www.w3.org/2000/svg" width="1536" height="1024">
<path d="M0 0 C506.88 0 1013.76 0 1536 0 C1536 337.92 1536 675.84 1536 1024 C1029.12 1024 522.24 1024 0 1024 C0 686.08 0 348.16 0 0 Z " fill="#FEFEFE" transform="translate(0,0)"/>
<path d="M0 0 C0.75141138 -0.00226556 1.50282276 -0.00453111 2.27700418 -0.00686532 C4.78465577 -0.01317471 7.29225288 -0.01237792 9.7999115 -0.0115509 C11.60234141 -0.01454441 13.40477067 -0.01794739 15.2071991 -0.02172852 C20.09805999 -0.03055585 24.98890338 -0.03290617 29.87977147 -0.0335443 C32.9396395 -0.03425583 35.99950311 -0.03639216 39.05937004 -0.03904152 C49.74681251 -0.04829263 60.43424251 -0.05237693 71.12168884 -0.05158997 C81.06222965 -0.0509901 91.00271604 -0.06152468 100.94324309 -0.07733363 C109.4929683 -0.09044298 118.0426758 -0.0957724 126.59241098 -0.09513456 C131.69172386 -0.09488045 136.79098841 -0.09768281 141.89029121 -0.10831261 C146.6928008 -0.11805015 151.49521644 -0.11803427 156.29772949 -0.11079597 C158.05157548 -0.10975694 159.80542749 -0.11207209 161.55926323 -0.11815643 C185.37819356 -0.19537503 206.58401733 4.03282061 224.34263611 21.13371277 C238.16480305 36.67548789 243.49919242 54.50298842 243.483078 74.84611511 C243.48753469 76.60943129 243.48753469 76.60943129 243.4920814 78.40837002 C243.49923732 81.6586587 243.50193882 84.90891509 243.50267887 88.15921044 C243.5045362 91.66997886 243.51208701 95.18073597 243.51881409 98.6914978 C243.53237142 106.3633318 243.5384183 114.03516056 243.54282475 121.70700455 C243.54559204 126.50279602 243.54983032 131.29858549 243.55432892 136.09437561 C243.56651907 149.38765333 243.57681831 162.68092946 243.58020401 175.97421265 C243.58042358 176.82433302 243.58064314 177.67445339 243.58086936 178.55033499 C243.58108764 179.40242637 243.58130592 180.25451775 243.58153081 181.13243008 C243.58197427 182.85893186 243.58242083 184.58543364 243.58287048 186.31193542 C243.58309191 187.16832993 243.58331334 188.02472443 243.58354148 188.90707028 C243.5874859 202.77044862 243.60493017 216.63377429 243.62823001 230.4971323 C243.65199036 244.75027484 243.66440802 259.003391 243.66557193 273.25655365 C243.66648615 281.25109732 243.67217441 289.24557237 243.69039154 297.24009705 C243.70585602 304.05037461 243.71087587 310.86056235 243.70265344 317.67085415 C243.69876901 321.14008528 243.69956711 324.60913588 243.71371078 328.07834435 C243.79956744 353.43649486 242.03817378 377.00274371 223.59263611 396.38371277 C206.9003914 412.31836695 187.6608381 416.59887116 165.40977478 416.5377655 C163.5210327 416.5434778 161.63229406 416.55044537 159.74356079 416.55856323 C154.64420299 416.57641647 149.54501801 416.57534085 144.44563842 416.56962085 C140.17415848 416.56651708 135.90271117 416.57263474 131.6312359 416.57865959 C121.54599436 416.59267802 111.46083757 416.5911664 101.37559509 416.57975769 C91.00432174 416.56828397 80.63330722 416.58234583 70.26206797 416.60915416 C61.32746452 416.63137615 52.39294191 416.6379338 43.45831281 416.63207775 C38.1354164 416.62872191 32.81268577 416.63103118 27.48981285 416.64832878 C22.48028049 416.66389937 17.47112867 416.65973116 12.46161079 416.64102364 C10.63442426 416.63736533 8.8072089 416.64036459 6.98004913 416.65090942 C-12.85216539 416.7565306 -30.3677083 412.64362009 -45.65736389 399.13371277 C-46.48107483 398.41570496 -47.30478577 397.69769714 -48.15345764 396.95793152 C-61.370868 384.66594107 -68.27787581 368.00832323 -69.65736389 350.13371277 C-69.79648945 346.17875508 -69.80521111 342.22732867 -69.80453491 338.27018738 C-69.8082116 337.10251265 -69.81188829 335.93483791 -69.81567639 334.7317791 C-69.82474368 331.51267556 -69.82939971 328.29360199 -69.8320657 325.07448792 C-69.83599337 321.59370792 -69.84556965 318.11294234 -69.85427856 314.63217163 C-69.87397127 306.23829405 -69.88409888 297.8444154 -69.89300635 289.45052052 C-69.89740006 285.48885839 -69.90276395 281.52719759 -69.90799522 277.5655365 C-69.92499841 264.38198626 -69.93949095 251.19843683 -69.94674397 238.01487732 C-69.94865356 234.59957376 -69.95057394 231.18427021 -69.95252991 227.76896667 C-69.95301365 226.92020903 -69.95349739 226.07145138 -69.95399579 225.1969738 C-69.96229028 211.45792032 -69.98762147 197.71895406 -70.02011058 183.97993863 C-70.05325768 169.84650479 -70.07119952 155.71311518 -70.07438821 141.5796423 C-70.07654596 133.65546181 -70.08518666 125.73140863 -70.11084938 117.80726624 C-70.13266104 111.05709759 -70.14055569 104.30708722 -70.1308826 97.55688733 C-70.12636827 94.11974266 -70.12805425 90.68292381 -70.14764404 87.24582481 C-70.31038408 53.09961486 -70.31038408 53.09961486 -61.90736389 37.69621277 C-61.56447327 37.04209412 -61.22158264 36.38797546 -60.86830139 35.71403503 C-51.68525673 18.73671365 -37.54904988 8.2229652 -19.26478577 2.64299011 C-12.79738231 0.76614313 -6.71701603 -0.01499967 0 0 Z " fill="#C92A24" transform="translate(267.65736389160156,303.8662872314453)"/>
<path d="M0 0 C17.38505907 14.3923259 27.14665817 33.53081844 29.71044922 55.77294922 C31.92935758 79.9805237 28.32176367 106.35143246 12.83984375 125.8984375 C10.61975096 128.44351742 8.32145339 130.85816577 5.9375 133.25 C5.18855469 134.02214844 4.43960938 134.79429687 3.66796875 135.58984375 C-14.16843239 152.89381501 -37.64187161 156.74176917 -61.53515625 156.46484375 C-85.45062383 155.80744401 -105.17894963 144.85665195 -121.3125 127.8828125 C-137.96315815 108.56544738 -141.26497738 83.86070378 -140.0625 59.25 C-138.14733763 35.90722387 -128.49362732 14.2154477 -110.47460938 -1.09960938 C-78.45355921 -26.56641252 -31.70518385 -24.21653613 0 0 Z " fill="#1C283C" transform="translate(977.0625,462.75)"/>
<path d="M0 0 C4.70002273 4.39013112 7.9162398 8.9980298 10.75 14.75 C11.07742188 15.40613281 11.40484375 16.06226563 11.7421875 16.73828125 C14.40563104 22.8642014 14.15468247 27.6061897 14.75 34.75 C0.56 34.75 -13.63 34.75 -28.25 34.75 C-29.57 31.45 -30.89 28.15 -32.25 24.75 C-37.35666071 19.36730357 -44.52941024 17.12706708 -51.79296875 16.546875 C-60.84930148 16.38634916 -69.12518165 17.87202486 -76.25 23.75 C-78.19633002 26.83224276 -78.49746283 29.19837676 -78.4375 32.8125 C-78.42783203 34.09833984 -78.42783203 34.09833984 -78.41796875 35.41015625 C-78.33590034 37.90477968 -78.33590034 37.90477968 -77.25 40.75 C-74.93831841 41.88380255 -74.93831841 41.88380255 -72.25 42.75 C-71.11161179 43.23222015 -71.11161179 43.23222015 -69.95022583 43.72418213 C-63.91492873 46.24697513 -57.91609 47.99581719 -51.5546875 49.484375 C-49.51806032 49.98107901 -47.48160737 50.47849786 -45.4453125 50.9765625 C-42.29482722 51.73904437 -39.143287 52.49569014 -35.98828125 53.23925781 C-17.45682479 57.62798103 2.25253513 62.61350784 13.125 79.6875 C17.44989347 87.06005233 19.31935728 94.50329483 19.25 103 C19.24427979 103.82483887 19.23855957 104.64967773 19.23266602 105.49951172 C18.89571993 117.15535053 14.50501808 126.18399964 6.75 134.75 C6.25113281 135.35199219 5.75226563 135.95398438 5.23828125 136.57421875 C-7.5650967 150.92561217 -28.93273457 155.80953011 -47.32763672 156.93896484 C-69.35547513 157.85225795 -92.88032645 155.48176857 -110.3671875 140.48828125 C-110.98851562 139.91464844 -111.60984375 139.34101562 -112.25 138.75 C-112.87132812 138.20730469 -113.49265625 137.66460938 -114.1328125 137.10546875 C-122.39773171 129.46667978 -126.96238808 119.6901676 -129.25 108.75 C-129.25 106.44 -129.25 104.13 -129.25 101.75 C-114.4 101.75 -99.55 101.75 -84.25 101.75 C-82.93 105.05 -81.61 108.35 -80.25 111.75 C-74.35647032 118.24491026 -67.36442332 121.20401581 -58.6640625 122.1328125 C-49.73835011 122.40886546 -39.9338127 121.70036775 -32.3671875 116.44140625 C-29.17209828 113.36499177 -28.07744685 110.83098664 -27.9375 106.5 C-28.02813552 101.7945058 -28.91816813 99.24436025 -32.25 95.75 C-38.20863257 92.3898524 -44.54592883 90.75880505 -51.19140625 89.3828125 C-53.09441573 88.96751522 -54.99741003 88.55214838 -56.90039062 88.13671875 C-59.84569425 87.50605259 -62.7918049 86.87938249 -65.73852539 86.25537109 C-107.85807244 77.28261513 -107.85807244 77.28261513 -119.71875 59.5546875 C-126.28223058 48.2975551 -127.05733722 35.06806792 -124.59765625 22.38671875 C-123.68193696 19.67100188 -122.61112104 17.27089281 -121.25 14.75 C-120.75242187 13.81929688 -120.25484375 12.88859375 -119.7421875 11.9296875 C-110.58150876 -3.70737807 -95.28302704 -11.66004745 -78.25 -16.25 C-52.02535073 -22.37546552 -20.82083615 -17.57241446 0 0 Z " fill="#1B283C" transform="translate(800.25,462.25)"/>
<path d="M0 0 C0.74507812 0.61230469 1.49015625 1.22460938 2.2578125 1.85546875 C3.08539062 2.49871094 3.91296875 3.14195312 4.765625 3.8046875 C16.47477586 13.49069761 23.15902018 26.14009821 26.2578125 40.85546875 C26.2578125 43.16546875 26.2578125 45.47546875 26.2578125 47.85546875 C11.4078125 47.85546875 -3.4421875 47.85546875 -18.7421875 47.85546875 C-21.0521875 43.23546875 -23.3621875 38.61546875 -25.7421875 33.85546875 C-29.53014493 30.35454427 -29.53014493 30.35454427 -33.7421875 27.85546875 C-34.78503906 27.32179688 -35.82789063 26.788125 -36.90234375 26.23828125 C-41.28575857 24.4074785 -45.48344532 24.37693725 -50.1796875 24.41796875 C-51.39108398 24.38799805 -51.39108398 24.38799805 -52.62695312 24.35742188 C-61.33568131 24.36443938 -67.56697853 27.99223572 -73.859375 33.828125 C-85.20719239 46.0470404 -86.51380128 61.46844617 -86.0625 77.3359375 C-85.45866875 90.09675982 -82.43036527 102.5685911 -73.6171875 112.25390625 C-65.89371462 118.85103934 -57.89653786 121.24160048 -47.97265625 121.1328125 C-39.55675695 120.41028668 -31.74229369 116.81466513 -25.7421875 110.85546875 C-22.57751708 106.74624109 -20.67349561 102.68373904 -18.7421875 97.85546875 C-3.8921875 97.85546875 10.9578125 97.85546875 26.2578125 97.85546875 C23.10209926 116.7897482 15.55183751 133.14839866 -0.3046875 144.7265625 C-21.80605457 158.92845978 -47.66878215 162.53106838 -72.94116211 157.82299805 C-85.67354122 154.92066428 -98.08021794 148.63395082 -107.7421875 139.85546875 C-108.48726562 139.20191406 -109.23234375 138.54835938 -110 137.875 C-126.23866569 122.76478396 -133.05581928 100.78176917 -134.05859375 79.1484375 C-134.82315863 52.24748301 -128.7797554 27.15929636 -109.9765625 7.0078125 C-81.74874918 -20.18366501 -31.52162265 -24.20219502 0 0 Z " fill="#1C283C" transform="translate(1353.7421875,459.14453125)"/>
<path d="M0 0 C15.18 0 30.36 0 46 0 C46 13.86 46 27.72 46 42 C57.22 42 68.44 42 80 42 C80 53.55 80 65.1 80 77 C68.78 77 57.56 77 46 77 C46.0629854 87.57076002 46.13845285 98.1412306 46.23571491 108.71173191 C46.28038555 113.62038586 46.31964901 118.52895744 46.34643555 123.43774414 C46.37250145 128.17764583 46.4129272 132.91723001 46.46318626 137.65693474 C46.47983274 139.4625242 46.49136082 141.26816856 46.49761391 143.07382393 C46.50727921 145.60887834 46.53536688 148.1431245 46.56762695 150.67797852 C46.56619186 151.41957214 46.56475677 152.16116577 46.5632782 152.92523193 C46.65537682 158.06400238 47.66383084 161.51427428 50 166 C54.13043278 169.92391114 57.26544676 171.13172457 62.88671875 171.09765625 C63.73194092 171.09515869 64.57716309 171.09266113 65.44799805 171.09008789 C66.51703369 171.08098389 67.58606934 171.07187988 68.6875 171.0625 C72.090625 171.041875 75.49375 171.02125 79 171 C79 183.21 79 195.42 79 208 C62.62151737 211.50967485 62.62151737 211.50967485 55.0625 211.375 C53.795271 211.36194824 53.795271 211.36194824 52.50244141 211.34863281 C37.55915192 211.00420029 21.89026625 207.9306754 11 197 C-4.31965958 177.33729129 -1.30190787 151.15576836 -1.19561768 127.57971191 C-1.18478886 124.55529722 -1.18515 121.53092811 -1.18575573 118.50649738 C-1.1854808 115.54380573 -1.17994923 112.58114195 -1.17275429 109.6184597 C-1.16962819 108.22694292 -1.16761486 106.83542306 -1.16686058 105.44390297 C-1.15601829 95.90936328 -0.71213061 86.50277031 0 77 C-7.92 77 -15.84 77 -24 77 C-24 65.45 -24 53.9 -24 42 C-16.08 42 -8.16 42 0 42 C0 28.14 0 14.28 0 0 Z " fill="#1C283C" transform="translate(1043,407)"/>
<path d="M0 0 C16.83 0 33.66 0 51 0 C51 74.91 51 149.82 51 227 C34.17 227 17.34 227 0 227 C0 152.09 0 77.18 0 0 Z " fill="#1B283C" transform="translate(593,388)"/>
<path d="M0 0 C2.72669951 0.00539795 5.45323685 -0.00000026 8.17993164 -0.00634766 C9.94751012 -0.00568732 11.7150885 -0.00440707 13.48266602 -0.00244141 C14.2808223 -0.00446564 15.07897858 -0.00648987 15.90132141 -0.00857544 C31.05426374 0.05332133 31.05426374 0.05332133 35.90063477 2.88037109 C40.45068511 7.99917773 40.33168224 13.46073917 40.21313477 20.03271484 C39.64583558 25.65606798 36.83773356 28.42167138 32.71313477 31.88037109 C31.78500977 32.62287109 30.85688477 33.36537109 29.90063477 34.13037109 C28.28153742 37.36856579 28.7655513 40.91886061 28.7746582 44.47631836 C28.77279007 45.33997513 28.77092194 46.2036319 28.76899719 47.09346008 C28.76498711 48.97376265 28.7629178 50.8540701 28.7625351 52.73437691 C28.75912276 56.7373051 28.73775881 60.74007042 28.71730423 64.74294186 C28.67928903 72.19835905 28.64801394 79.65360575 28.65014648 87.10913086 C28.65093562 92.29232674 28.62747844 97.47493103 28.58826447 102.65797234 C28.57782903 104.62938715 28.57626226 106.60087047 28.58391571 108.57229805 C28.6547001 128.83645888 28.6547001 128.83645888 22.90063477 135.13037109 C14.85391551 142.64208727 7.23671334 144.75417407 -3.69702148 144.47412109 C-12.22504429 143.61250685 -18.27173651 139.21852911 -24.09936523 133.13037109 C-28.16741506 127.4875923 -28.24294421 122.37579445 -28.2253418 115.58569336 C-28.22720993 114.72507294 -28.22907806 113.86445251 -28.23100281 112.97775269 C-28.23500233 111.11111818 -28.23708123 109.24447879 -28.2374649 107.37784004 C-28.24088383 103.40960812 -28.26224732 99.44153956 -28.28269577 95.47336483 C-28.32071309 88.08646886 -28.35197703 80.69974916 -28.34985352 73.31274414 C-28.34906709 68.17264426 -28.37239752 63.03314493 -28.41173553 57.89320183 C-28.42220493 55.93522783 -28.42371267 53.9771846 -28.41608429 52.01919746 C-28.40647584 49.2802831 -28.4276174 46.54319292 -28.45581055 43.80444336 C-28.44561386 42.99648819 -28.43541718 42.18853302 -28.4249115 41.35609436 C-28.50233021 37.1616845 -28.70029324 35.61379724 -31.46575928 32.26377869 C-32.33484924 31.55975418 -33.20393921 30.85572968 -34.09936523 30.13037109 C-37.95628182 26.23553538 -39.70654385 23.76201269 -39.68530273 18.15966797 C-39.65694336 17.469375 -39.62858398 16.77908203 -39.59936523 16.06787109 C-39.60323242 15.02663086 -39.60323242 15.02663086 -39.60717773 13.96435547 C-39.52314636 9.54010353 -38.82169153 6.62958767 -36.09936523 3.13037109 C-27.41717748 -2.65775408 -10.20785389 -0.02404241 0 0 Z " fill="#FEFDFD" transform="translate(354.099365234375,530.86962890625)"/>
<path d="M0 0 C15.18 0 30.36 0 46 0 C46 54.78 46 109.56 46 166 C30.82 166 15.64 166 0 166 C0 111.22 0 56.44 0 0 Z " fill="#1B273C" transform="translate(1151,449)"/>
<path d="M0 0 C1.12591553 0.00523682 2.25183105 0.01047363 3.41186523 0.01586914 C4.62680664 0.0190918 5.84174805 0.02231445 7.09350586 0.02563477 C8.37290039 0.03401367 9.65229492 0.04239258 10.97045898 0.05102539 C12.2537207 0.05553711 13.53698242 0.06004883 14.85913086 0.06469727 C18.04211921 0.07652994 21.22501661 0.09301471 24.40795898 0.11352539 C26.00895876 4.90026698 27.57316788 9.69714149 29.10766602 14.50561523 C29.63179373 16.13172228 30.16499818 17.75493818 30.70825195 19.37475586 C33.57268982 27.93618332 35.93458833 36.30269808 36.25170898 45.37133789 C36.29791382 46.03011932 36.34411865 46.68890076 36.39172363 47.36764526 C36.3705998 52.01890128 35.00121865 54.93549738 32.53427887 58.86220264 C25.81427814 69.76550128 26.29042846 80.38888449 26.40795898 92.89086914 C26.40042633 95.15630989 26.38937996 97.42174141 26.375 99.68714905 C26.34676394 105.60075099 26.36572567 111.51325984 26.39508057 117.42681885 C26.41659256 123.48066053 26.39269147 129.53431259 26.37280273 135.58813477 C26.34049449 147.43028762 26.36233564 159.27141613 26.40795898 171.11352539 C15.84795898 171.11352539 5.28795898 171.11352539 -5.59204102 171.11352539 C-5.58567627 168.09172119 -5.57931152 165.06991699 -5.57275391 161.95654297 C-5.55675877 151.93409854 -5.57932953 141.91200225 -5.62050724 131.88963795 C-5.64428597 125.81736614 -5.65537216 119.74564132 -5.63671875 113.67333984 C-5.61917114 107.80502541 -5.63592147 101.93769001 -5.67571831 96.06949425 C-5.68495968 93.83901339 -5.6821728 91.60844684 -5.6667347 89.37800026 C-5.52660681 73.09365568 -5.52660681 73.09365568 -11.99485779 58.5188446 C-16.32473044 51.99816138 -15.61647925 42.29804457 -14.14361572 34.84411621 C-12.7563327 29.22405446 -10.95728724 23.73615185 -9.15454102 18.23852539 C-8.63116382 16.58157 -8.1096677 14.92401922 -7.59008789 13.26586914 C-3.44090552 0.15070369 -3.44090552 0.15070369 0 0 Z " fill="#FEFEFE" transform="translate(343.592041015625,345.886474609375)"/>
<path d="M0 0 C9.55859616 4.97047 15.57127002 14.03850041 19 24 C24.12690651 41.01388733 23.86051749 60.37373658 16.125 76.5625 C11.02147706 85.86086985 4.8639884 91.65619908 -5.36328125 95.1484375 C-16.48444799 97.75253455 -26.38635471 96.44592425 -36.140625 90.75 C-45.8378003 84.23586698 -51.01015602 73.80109271 -53.53271484 62.64379883 C-56.6913903 44.77269303 -53.56652306 26.35824785 -44 11 C-32.95589216 -2.91914488 -16.51925561 -7.0621353 0 0 Z " fill="#FDFDFD" transform="translate(938,485)"/>
<path d="M0 0 C7.78115561 4.0084741 12.4568357 8.95782921 15.1875 17.3125 C16.37287697 25.13598801 15.36738789 32.52605281 11.1875 39.3125 C6.21876154 45.13867563 0.40121635 48.71254236 -7.22265625 49.58984375 C-14.83963464 49.88416285 -21.55300995 48.36631989 -27.625 43.625 C-32.63737118 38.96151777 -35.33825771 32.81391452 -36.05078125 26.05078125 C-36.28778359 18.3045469 -34.12546232 13.08177193 -30.125 6.5625 C-22.06068926 -1.2838564 -10.5856082 -4.45709819 0 0 Z " fill="#1B273B" transform="translate(1183.8125,387.6875)"/>
<path d="M0 0 C3.6578218 2.03993908 5.66946174 3.50419262 8 7 C8.57091285 11.97509769 8.54264082 14.03725016 6.0625 18.4375 C2.11627238 21.73944556 -0.91701414 22.39739708 -6 22 C-9.1998952 20.7478671 -10.62066135 19.42991714 -12.875 16.875 C-14.49003276 12.74769405 -14.31788631 9.2219711 -13 5 C-8.94307098 0.83904716 -5.77543438 -0.55533023 0 0 Z " fill="#C72721" transform="translate(357,636)"/>
<path d="M0 0 C0.66 0.33 1.32 0.66 2 1 C2.02321468 11.42291796 2.04096153 21.84582972 2.05181217 32.26876831 C2.05702106 37.10903845 2.06408238 41.94929085 2.07543945 46.78955078 C2.08633933 51.46444879 2.09229185 56.13932977 2.09487724 60.8142395 C2.09671872 62.59392566 2.1003146 64.37361093 2.10573006 66.15328979 C2.11303481 68.6542967 2.11398698 71.15523407 2.11352539 73.65625 C2.11712067 74.38489761 2.12071594 75.11354523 2.12442017 75.86427307 C2.11490971 80.65555755 1.67236935 85.25497022 1 90 C0.67 90 0.34 90 0 90 C-0.73551241 85.39206195 -1.12610004 80.97335582 -1.12939453 76.30883789 C-1.13254669 75.01961929 -1.13569885 73.7304007 -1.13894653 72.40211487 C-1.13715469 71.00896165 -1.13510322 69.61580874 -1.1328125 68.22265625 C-1.13348777 66.76883427 -1.13445965 65.3150124 -1.13571167 63.8611908 C-1.13718235 60.81589685 -1.13505719 57.77063231 -1.13037109 54.7253418 C-1.12472006 50.86972441 -1.12792721 47.01417737 -1.13394356 43.15856266 C-1.13760568 40.15292356 -1.13638429 37.14730034 -1.13381577 34.14166069 C-1.1331596 32.72305734 -1.13392771 31.30445243 -1.13629532 29.88585091 C-1.14931234 19.88232824 -0.72646971 9.97148289 0 0 Z " fill="#283040" transform="translate(1043,483)"/>
<path d="M0 0 C14.85 0 29.7 0 45 0 C45.495 3.465 45.495 3.465 46 7 C45.34 5.68 44.68 4.36 44 3 C30.47 3 16.94 3 3 3 C2.67 4.32 2.34 5.64 2 7 C1.34 7 0.68 7 0 7 C0 4.69 0 2.38 0 0 Z " fill="#2D3445" transform="translate(671,564)"/>
<path d="M0 0 C6.6 0 13.2 0 20 0 C20 0.99 20 1.98 20 3 C13.07 3 6.14 3 -1 3 C-0.67 2.01 -0.34 1.02 0 0 Z " fill="#242F44" transform="translate(911,444)"/>
<path d="M0 0 C2.93804996 -0.08086376 5.87388075 -0.1404283 8.8125 -0.1875 C9.64587891 -0.21263672 10.47925781 -0.23777344 11.33789062 -0.26367188 C12.54155273 -0.27817383 12.54155273 -0.27817383 13.76953125 -0.29296875 C14.87711792 -0.31653442 14.87711792 -0.31653442 16.00708008 -0.34057617 C18 0 18 0 21 3 C14.07 3 7.14 3 0 3 C0 2.01 0 1.02 0 0 Z " fill="#232F44" transform="translate(735,444)"/>
</svg>
